<svg id="Capa_1" data-name="Capa 1" xmlns="http://www.w3.org/2000/svg" viewBox="0 0 190.76 222.77"><defs><style>.cls-1{fill:#fff;}.cls-2{fill:none;}</style></defs><title>avenger logo</title><path id="path3" class="cls-1" d="M91.26,43.6c-42.34,2.17-76,37.57-76,80.93A81.29,81.29,0,0,0,25.8,164.72l-8.12,15.77A96.81,96.81,0,0,1,0,124.53C0,71.25,42.7,28.05,95.38,28.05q1.14,0,2.25,0L111.41,0h29.44V39.7a96.61,96.61,0,0,1,49.91,84.83c0,53.27-42.7,96.47-95.38,96.47a94.19,94.19,0,0,1-44.52-11.13L57.58,196a79,79,0,0,0,37.8,9.57c44.25,0,80.12-36.28,80.12-81a81.2,81.2,0,0,0-35.32-67.19V134l-26.9-25.44V50.45L80.06,129.34h33.22V116.68L144.42,146l-32.18,24.71V157.58H68.44L39.58,222.77l-35.71-.7Z"/><polygon id="polygon5" class="cls-2" points="112.21 179.64 140.13 155.72 140.13 179.64 112.21 179.64"/></svg>