<?xml version="1.0" standalone="no"?>
<!DOCTYPE svg PUBLIC "-//W3C//DTD SVG 20010904//EN"
 "http://www.w3.org/TR/2001/REC-SVG-20010904/DTD/svg10.dtd">
<svg version="1.0" xmlns="http://www.w3.org/2000/svg"
 width="700.000000pt" height="700.000000pt" viewBox="0 0 700.000000 700.000000"
 preserveAspectRatio="xMidYMid meet">
<metadata>
Created by potrace 1.11, written by Peter Selinger 2001-2013
</metadata>
<g transform="translate(0.000000,700.000000) scale(0.100000,-0.100000)"
fill="#000000" stroke="none">
<path d="M3973 6943 c-8 -21 -20 -41 -27 -45 -6 -4 -8 -8 -4 -8 3 0 -34 -82
-84 -182 -50 -101 -137 -278 -193 -394 l-102 -211 -129 -2 c-71 -1 -145 -4
-164 -6 -19 -3 -62 -7 -95 -9 -55 -4 -151 -18 -215 -31 -14 -3 -50 -9 -80 -15
-30 -6 -80 -17 -110 -26 -30 -8 -66 -17 -80 -20 -30 -6 -227 -70 -255 -83 -11
-5 -60 -26 -110 -47 -107 -44 -282 -134 -380 -194 -71 -43 -186 -120 -195
-131 -3 -3 -23 -18 -45 -34 -22 -16 -44 -34 -50 -40 -5 -6 -21 -18 -34 -27
-41 -28 -163 -139 -256 -233 -120 -121 -216 -236 -308 -370 -42 -60 -81 -115
-87 -122 -5 -7 -10 -14 -10 -17 0 -2 -21 -40 -46 -83 -66 -110 -153 -290 -201
-413 -45 -114 -55 -140 -59 -155 -1 -5 -14 -48 -29 -95 -32 -102 -30 -95 -39
-145 -4 -22 -10 -47 -13 -55 -3 -8 -7 -22 -9 -30 -9 -48 -16 -88 -20 -110 -2
-14 -5 -34 -8 -45 -2 -12 -7 -45 -11 -75 -4 -30 -9 -71 -11 -90 -8 -55 -14
-562 -7 -573 3 -5 7 -32 8 -61 2 -48 11 -120 21 -176 3 -14 7 -38 10 -55 11
-74 48 -231 56 -239 4 -6 8 -18 8 -28 0 -24 75 -254 103 -315 11 -26 22 -50
22 -53 6 -20 99 -213 154 -315 36 -68 155 -255 161 -255 4 0 15 11 24 25 9 14
14 25 11 25 -4 0 3 14 15 30 12 17 18 30 14 30 -3 0 -2 6 4 13 5 6 47 84 92
172 45 88 87 165 92 172 6 7 -14 60 -60 155 -63 129 -145 334 -156 391 -3 12
-11 45 -20 72 -29 99 -59 266 -74 410 -9 92 -9 433 0 510 17 136 26 198 43
275 8 38 19 94 20 100 0 3 3 10 6 15 4 6 10 26 15 45 11 50 11 50 14 53 1 1 3
9 5 17 14 66 80 229 155 385 71 147 213 362 325 494 83 97 250 264 308 309 26
20 47 40 47 44 0 4 6 8 14 8 8 0 16 4 18 8 5 13 142 112 154 112 7 0 14 4 16
8 10 25 372 215 451 237 4 2 9 4 12 5 3 1 8 3 13 5 4 1 15 5 24 9 9 4 22 9 30
10 7 2 26 8 41 15 44 18 219 64 287 76 19 3 53 10 75 15 50 11 128 22 181 25
22 1 45 4 50 7 8 4 15 4 52 0 9 -2 6 -14 -9 -44 -31 -59 -33 -64 -69 -138 -17
-36 -35 -72 -41 -80 -5 -8 -14 -26 -20 -40 -5 -14 -24 -54 -42 -90 -17 -36
-31 -68 -29 -72 1 -5 -2 -8 -7 -8 -5 0 -11 -8 -13 -17 -3 -10 -6 -22 -8 -28
-1 -5 -11 -22 -21 -36 -10 -14 -16 -29 -12 -33 3 -3 1 -6 -5 -6 -7 0 -12 -5
-12 -11 0 -5 -79 -170 -175 -365 -96 -196 -175 -359 -175 -365 0 -5 -4 -9 -10
-9 -5 0 -10 -5 -10 -11 0 -7 -34 -82 -76 -168 -42 -86 -80 -165 -85 -176 -5
-11 -13 -27 -18 -35 -8 -12 -103 -207 -205 -420 -11 -25 -24 -46 -28 -48 -5
-2 -8 -9 -8 -16 0 -6 -59 -131 -131 -276 -204 -411 -339 -690 -339 -700 0 -6
-4 -10 -10 -10 -5 0 -10 -5 -10 -10 0 -6 -44 -99 -97 -208 -53 -108 -98 -202
-99 -209 -1 -7 -12 -26 -23 -42 -12 -16 -21 -33 -21 -38 0 -5 -22 -54 -50
-108 -27 -55 -50 -106 -50 -112 0 -7 -4 -13 -8 -13 -5 0 -14 -16 -22 -35 -8
-19 -18 -35 -24 -35 -5 0 -7 -3 -3 -6 3 -3 -9 -36 -28 -73 -32 -64 -217 -441
-387 -791 -47 -96 -86 -177 -86 -180 0 -3 -14 -31 -31 -63 -18 -31 -29 -57
-26 -57 3 0 1 -6 -5 -13 -15 -16 -201 -390 -196 -394 1 -2 119 -5 262 -8 675
-13 864 -14 864 -6 0 5 14 40 31 78 17 37 37 84 46 103 8 19 25 57 39 83 13
27 24 52 24 57 0 4 17 46 39 92 21 45 60 133 86 193 56 130 85 195 131 292 19
40 34 77 34 83 0 5 4 10 8 10 5 0 9 6 9 13 0 12 27 76 69 160 13 26 21 47 19
47 -2 0 10 27 26 60 16 33 29 62 29 65 0 3 123 284 180 410 59 132 80 179 101
227 14 35 29 56 36 53 7 -2 15 0 19 6 4 7 10 6 19 -1 10 -8 15 -8 20 0 5 8 10
8 20 0 9 -8 15 -8 20 0 3 6 11 7 18 3 16 -10 57 -10 57 0 0 4 8 4 18 0 21 -10
43 -10 59 0 6 4 15 3 18 -3 5 -8 11 -8 20 0 10 8 15 8 20 0 5 -8 10 -8 20 0
10 8 15 8 20 0 5 -8 11 -8 21 1 11 9 17 9 28 0 10 -9 16 -9 21 -1 5 8 10 8 20
0 10 -8 15 -8 20 0 5 8 10 8 20 0 10 -8 15 -8 20 0 5 8 10 8 20 0 10 -8 15 -8
20 0 5 8 10 8 20 0 10 -8 15 -8 20 0 5 8 10 8 20 0 10 -8 15 -8 20 0 5 8 10 8
20 0 9 -8 15 -8 20 0 3 6 12 7 18 3 16 -10 39 -10 54 0 6 4 14 3 18 -3 5 -8
10 -8 20 0 10 8 15 8 20 0 5 -8 10 -8 20 0 10 8 15 8 20 0 5 -8 11 -8 21 1 11
9 17 9 28 0 10 -8 16 -9 21 -1 3 6 11 7 18 3 16 -10 58 -10 64 0 2 4 11 3 18
-3 10 -8 15 -8 20 0 5 8 10 8 20 0 9 -8 15 -8 20 0 3 6 11 7 18 3 16 -10 57
-10 57 0 0 4 5 5 11 2 16 -11 69 -12 69 -3 0 5 9 4 20 -2 14 -8 20 -8 20 0 0
8 6 8 20 0 14 -8 20 -8 20 0 0 8 6 8 20 0 15 -8 20 -8 20 1 0 9 3 9 14 0 11
-10 14 -51 13 -209 0 -108 2 -197 6 -197 3 0 14 7 24 15 10 8 74 58 143 109
69 52 131 101 138 108 7 7 17 13 21 13 4 0 16 8 27 18 10 10 37 31 59 47 57
43 62 47 150 117 44 35 118 93 165 128 47 35 87 66 90 69 7 9 81 64 110 83 49
33 85 69 73 76 -12 8 -141 125 -223 202 -30 29 -129 123 -220 209 -90 86 -196
186 -235 222 -148 140 -221 207 -255 238 l-35 32 -3 -196 c-2 -177 -4 -195
-20 -196 -61 -3 -1013 -1 -1016 2 -2 2 7 27 20 54 13 28 23 56 24 63 0 6 4 12
8 12 5 0 9 6 9 13 0 6 9 32 21 57 11 25 22 52 24 60 2 8 5 17 8 20 3 3 22 46
42 95 71 175 103 250 108 255 3 3 6 12 8 20 4 15 97 239 133 317 10 24 19 45
19 48 0 4 10 27 22 53 12 26 21 50 20 55 -1 4 3 7 10 7 6 0 9 3 5 6 -3 4 0 19
9 35 8 16 15 31 15 34 0 2 20 50 45 106 24 56 44 108 44 115 0 8 4 14 10 14 5
0 12 16 16 35 3 19 10 35 15 35 5 0 9 6 9 13 0 11 38 106 80 202 5 11 18 43
30 70 12 28 28 66 36 85 19 42 19 44 84 200 28 69 59 141 67 160 9 19 16 41
16 48 0 6 4 12 9 12 4 0 8 5 8 11 0 9 11 37 48 119 8 19 11 -208 11 -877 l1
-901 28 -29 c16 -15 88 -84 161 -153 73 -69 154 -145 180 -170 26 -25 112
-106 191 -180 79 -74 158 -148 175 -165 17 -16 50 -47 71 -68 l40 -37 0 1190
c0 654 3 1192 6 1195 7 7 78 -34 78 -45 0 -5 8 -11 18 -14 9 -4 33 -20 52 -36
19 -17 60 -52 90 -78 138 -120 340 -351 426 -487 10 -16 21 -32 24 -35 3 -3
26 -39 50 -80 24 -41 47 -77 50 -80 5 -5 54 -101 55 -110 1 -3 14 -32 29 -65
52 -113 58 -128 60 -139 1 -6 4 -15 8 -21 20 -33 106 -339 110 -393 1 -18 5
-32 8 -32 3 0 7 -15 8 -32 1 -18 7 -60 11 -93 5 -33 9 -67 9 -75 0 -8 3 -35 6
-60 9 -73 6 -475 -4 -475 -2 0 -3 -11 -5 -25 -3 -40 -21 -170 -25 -180 -1 -3
-4 -18 -6 -35 -6 -36 -42 -184 -51 -205 -3 -8 -7 -22 -8 -30 -3 -18 -42 -136
-55 -165 -5 -11 -19 -45 -30 -75 -27 -68 -110 -243 -120 -250 -4 -3 -10 -15
-14 -27 -4 -13 -13 -29 -19 -35 -7 -7 -30 -42 -52 -78 -42 -70 -132 -194 -198
-275 -58 -69 -261 -272 -322 -320 -27 -22 -52 -43 -55 -46 -9 -11 -223 -155
-270 -183 -98 -56 -240 -126 -340 -166 -58 -23 -112 -45 -120 -50 -19 -9 -82
-25 -92 -22 -5 1 -8 -2 -8 -6 0 -5 -6 -9 -12 -9 -11 -1 -42 -8 -118 -27 -61
-16 -100 -23 -105 -18 -3 3 -5 1 -5 -4 0 -5 -10 -9 -22 -10 -21 0 -41 -3 -168
-20 -76 -10 -140 -13 -285 -13 -208 0 -313 10 -481 45 -39 9 -79 17 -90 19
-10 2 -20 4 -21 5 -4 3 -12 5 -57 15 -35 7 -122 37 -271 92 -27 10 -51 21 -53
26 -2 4 -9 7 -15 7 -7 0 -52 20 -102 45 l-90 44 -34 -72 c-19 -40 -65 -135
-103 -211 -37 -76 -68 -144 -68 -150 0 -6 25 -22 55 -35 30 -13 55 -27 55 -32
0 -5 3 -8 8 -7 4 2 32 -8 62 -22 30 -13 57 -24 60 -25 3 -1 21 -8 40 -17 45
-19 102 -38 114 -37 5 0 12 -3 15 -8 5 -7 64 -29 93 -34 4 0 29 -7 55 -16 117
-36 221 -59 363 -82 107 -16 151 -22 240 -28 117 -9 389 -8 480 1 137 14 235
26 265 33 11 2 33 7 49 9 16 3 39 9 50 13 12 4 31 6 44 5 12 0 22 2 22 6 0 4
17 10 38 13 55 9 66 12 80 20 6 5 12 6 12 3 0 -15 326 108 475 179 164 79 425
235 447 269 4 6 8 7 8 3 0 -5 6 -2 14 5 8 7 27 23 43 35 15 12 38 30 50 40 11
10 41 34 64 53 83 68 201 182 326 315 85 92 313 407 313 434 0 5 3 11 8 13 18
8 150 267 207 407 23 58 56 147 71 196 16 50 33 93 39 97 5 4 7 8 3 8 -3 0 0
21 8 47 8 26 16 57 18 68 3 11 9 40 15 64 5 25 8 49 5 53 -3 4 -1 8 4 8 5 0
15 42 22 92 8 51 14 95 15 98 4 15 19 181 19 218 1 23 3 42 6 42 8 0 5 44 -4
58 -4 7 -3 12 1 12 5 0 8 55 7 123 -1 67 -3 122 -4 122 -6 0 -5 47 2 51 4 3 5
10 2 16 -4 6 -8 23 -10 37 -1 14 -5 58 -9 96 -10 94 -12 109 -25 185 -9 51
-60 275 -75 325 -1 6 -3 15 -5 20 -1 6 -5 15 -10 20 -4 6 -11 26 -15 45 -4 19
-11 41 -15 50 -15 28 -55 145 -52 153 1 4 -3 7 -8 7 -6 0 -10 5 -10 11 0 13
-101 241 -110 249 -4 3 -25 40 -47 82 -34 63 -134 223 -165 263 -4 6 -31 42
-60 80 -29 39 -57 75 -63 82 -5 6 -21 26 -35 45 -50 67 -306 315 -404 393 -21
17 -46 37 -56 45 -10 8 -29 23 -42 32 -13 9 -53 39 -91 66 -37 27 -111 75
-165 107 l-97 57 0 617 0 616 -463 3 -463 2 -16 -37z"/>
</g>
</svg>
